<svg width="963" height="1232" viewBox="0 0 963 1232" fill="none" xmlns="http://www.w3.org/2000/svg">
<path d="M0.467816 1058.23L81.4678 146.734C77.4678 59.1337 126.134 29.2337 150.968 25.2337C202.301 10.9004 329.768 -12.5663 428.968 8.23371C899.768 107.434 731.833 227 635 343.5C736.667 367.333 1015.27 620.434 948.468 889.234C881.668 1158.03 531.968 1229.23 365.468 1231.23C318.801 1232.9 201.868 1226.53 107.468 1187.73C13.0678 1148.93 -3.19885 1085.23 0.467816 1058.23Z" fill="#00B3FF"/>
<path d="M462.968 198.734C413.368 179.134 374.301 213.4 361.468 232.734C356.968 240.4 348.668 263.934 353.468 292.734C351.968 346.734 413.135 358.234 442.468 357.734C454.968 357.734 485.35 357.142 496.968 344.234C519.468 319.234 519.828 294.234 520.968 275.234C521.968 258.567 512.568 218.334 462.968 198.734Z" fill="#F2F2F2"/>
<path d="M396.968 442.734C423.43 440.335 439.831 452.925 445.938 459.589C457.303 443.096 487.361 420.007 516.673 459.589C545.984 499.171 524.476 524.726 510.057 532.556C502.933 535.388 490.211 546.45 496.317 568.04C518.301 643.606 523.118 724.803 522.779 755.955C521.083 774.28 526.341 817.228 560.946 842.416C589.443 863.407 590.122 893.06 589.952 900.39C590.122 907.054 585.779 926.978 567.052 953.366C548.325 979.754 517.182 987.684 503.951 988.35C494.282 989.35 469.55 987.051 447.973 969.859C439.017 995.047 418.968 996.734 409.468 993.734C410.316 987.736 408.586 973.657 399.629 964.861C387.416 955.665 388.434 933.042 390.469 922.88C393.523 908.053 401.359 876.101 408.28 866.905C415.201 857.709 419.645 834.753 421.002 824.424L423.547 731.466C423.716 700.647 423.954 632.211 423.547 605.023C423.14 577.836 414.217 562.043 409.807 557.545C403.87 551.714 389.146 535.955 377.747 519.562C366.348 503.169 369.944 482.079 373.167 473.583C374.524 468.918 383.126 456.328 396.968 442.734Z" fill="#F2F2F2"/>
<path d="M386.468 526.734C358.468 493.534 381.634 456.9 396.968 442.734C386.301 442.4 362.368 448.934 349.968 477.734C332.968 524.234 357.968 545.734 376.468 560.234C391.268 571.834 393.968 596.4 393.468 607.234L383.468 846.734C377.968 855.067 365.468 880.334 359.468 914.734C349.068 967.934 389.468 990.234 411.468 994.234C412.968 989.067 412.468 975.034 398.468 960.234C380.968 941.734 407.468 873.734 414.468 861.234C420.068 851.234 423.134 835.067 423.968 828.234C426.134 751.067 429.168 593.334 423.968 579.734C417.468 562.734 421.468 568.234 386.468 526.734Z" fill="#E5E5E5"/>
<path d="M350.968 367.234C298.968 327.634 336.468 260.734 361.468 232.734C338.668 302.334 367.135 336.4 384.468 344.234C404.801 354.234 456.668 367.734 497.468 343.734C488.468 353.734 415.968 416.734 350.968 367.234Z" fill="#E1E1E1"/>
<path d="M395.968 463.751C396.368 457.751 400.468 455.918 402.468 455.751C404.968 455.584 410.068 456.551 410.468 461.751C410.868 466.951 407.301 469.251 405.468 469.751C402.134 470.251 395.568 469.751 395.968 463.751Z" fill="#D9D9D9"/>
<path d="M366.968 494.251C366.968 488.651 371.968 487.584 374.468 487.751C376.301 487.918 380.068 489.451 380.468 494.251C380.868 499.051 376.634 500.584 374.468 500.751C371.968 500.918 366.968 499.851 366.968 494.251Z" fill="#D9D9D9"/>
<path d="M465.468 562.251C465.068 557.051 459.634 556.084 456.968 556.251C454.634 556.751 449.968 558.651 449.968 562.251C449.968 565.851 454.634 567.084 456.968 567.251C459.968 567.751 465.868 567.451 465.468 562.251Z" fill="#D9D9D9"/>
<path d="M558.968 890.751C554.568 885.551 547.801 889.918 544.968 892.751C541.801 894.918 536.568 900.551 540.968 905.751C545.368 910.951 552.801 906.251 555.968 903.251C558.801 901.251 563.368 895.951 558.968 890.751Z" fill="#D9D9D9"/>
<path d="M440.468 234.234C435.268 225.034 442.634 218.4 446.968 216.234C467.768 213.834 466.301 225.9 462.968 232.234C457.634 236.734 445.668 243.434 440.468 234.234Z" fill="#D9D9D9"/>
<path d="M470.468 290.234C470.468 286.634 473.801 286.734 475.468 287.234C476.634 287.734 479.068 289.134 479.468 290.734C479.068 294.734 476.301 295.4 474.968 295.234C473.468 295.067 470.468 293.834 470.468 290.234Z" fill="#D9D9D9"/>
<path d="M394.468 327.734C394.468 322.934 400.801 321.067 403.968 320.734C411.968 320.734 416.968 324.734 416.968 329.234C416.968 338.234 404.801 337.567 400.468 336.234C398.468 335.4 394.468 332.534 394.468 327.734Z" fill="#D9D9D9"/>
</svg>
